<?xml version="1.0" encoding="UTF-8"?>
<svg width="1024px" height="1024px" viewBox="0 0 1024 1024" version="1.1" xmlns="http://www.w3.org/2000/svg" xmlns:xlink="http://www.w3.org/1999/xlink">
    <title>Favicon</title>
    <g id="Favicon" stroke="none" stroke-width="1" fill="none" fill-rule="evenodd">
        <path d="M350.540641,610.482971 C309.713131,607.628033 280.613467,548.145695 285.544723,477.625451 C290.475979,407.105206 327.570788,352.251636 368.398298,355.106574 C409.225808,357.961512 438.325472,417.44385 433.394216,487.964094 C428.46296,558.484339 391.368151,613.337908 350.540641,610.482971 Z M672.691148,610.482971 C713.518658,607.628033 742.618322,548.145695 737.687066,477.625451 C732.75581,407.105206 695.661001,352.251636 654.833491,355.106574 C614.005981,357.961512 584.906317,417.44385 589.837573,487.964094 C594.768829,558.484339 631.863638,613.337908 672.691148,610.482971 Z M511.826606,834.928657 C510.455457,834.934941 509.094192,834.937252 507.743554,834.937252 C472.588331,834.937252 438.34289,830.06898 404.646231,804.639366 C370.949572,779.209752 352.615895,755.583621 352.615895,720.632242 C352.615895,720.620648 352.615906,720.609063 352.615929,720.597487 C352.615967,720.543906 352.615895,720.490576 352.615895,720.437252 L352.628155,719.980661 C353.583413,694.91794 410.180486,711.850543 460.38313,722.238063 C479.282656,725.431355 497.474705,728.134173 511.869357,728.591118 C526.25624,728.134298 544.448694,725.431429 563.349122,722.237363 C613.506156,711.859884 670.046586,694.948389 671.100921,719.913146 L671.115895,720.437252 C671.115895,720.489243 671.115826,720.54124 671.115689,720.593242 C671.11588,720.606337 671.115895,720.619284 671.115895,720.632242 C671.115895,755.583621 652.782217,779.209752 619.085558,804.639366 C585.388899,830.06898 551.143458,834.937252 515.988235,834.937252 C514.637597,834.937252 513.276332,834.934941 511.905183,834.928657 Z" id="Combined-Shape" fill="#EBE6FF"></path>
    </g>
</svg>