<svg viewBox="0 0 992.999997 1024" xmlns="http://www.w3.org/2000/svg">
    <g stroke="none" stroke-width="1" fill="none" fill-rule="evenodd">
        <title>Favicon</title>
        <g fill="#515252" fill-rule="nonzero">
            <path d="M810.452157,103.876724 C838.904807,127.499377 882.475902,161.181805 908.592558,203.452007 C918.825583,220.014693 928.638906,247.807074 922.467767,256.698977 C918.353675,262.6264 878.804543,254.023777 803.820371,230.891108 L824.046883,397.880399 C933.507948,427.614283 989.80929,451.442248 992.9509,469.36327 C995.18863,482.128964 920.667148,492.953155 824.059679,500.80109 L824.046883,791.756829 C824.046883,891.744221 743.017995,972.800006 643.063667,972.800006 L644.906257,972.800006 L644.906257,1024 L348.044646,1024 L348.044646,972.800006 L349.887236,972.800006 C249.932959,972.800006 168.90402,891.744221 168.90402,791.756829 L168.90402,498.483266 C168.90402,496.95085 168.92306,495.423043 168.960884,493.899843 C73.7087928,484.289092 0,473.973829 0,469.36327 C0,459.593799 45.0946605,421.65358 77.4914751,410.331213 C99.089334,402.782286 129.560183,402.782286 168.90402,410.331213 C219.143599,268.259423 273.521941,166.107756 332.039199,103.876724 C419.814523,10.5294077 489.241753,3.23340862 563.013399,0.120961012 C636.785044,-2.99148659 751.050149,54.5573062 810.452157,103.876724 Z M551.201377,791.027332 C533.682448,794.613175 513.286008,795.410154 493.938308,795.438723 C474.252289,795.467754 457.764186,794.533149 441.256121,791.027332 C418.538019,786.202552 398.154886,778.916229 390.864886,784.410193 C375.184963,796.226742 398.929797,829.203532 432.094358,850.581167 C451.539817,863.115643 474.466234,870.43248 493.938308,870.43248 C513.206162,870.43248 537.751499,862.733947 558.073212,850.581167 C593.315292,829.505714 618.623767,797.245008 601.593124,784.410193 C593.950473,778.65045 575.025545,786.151044 551.201377,791.027332 Z M338.185258,616.915507 C334.770838,665.456173 354.91904,706.399118 383.186919,708.364225 C411.45531,710.329332 437.138958,672.57246 440.552866,624.031794 C443.967286,575.491129 423.819596,534.54803 395.551205,532.582974 C367.283326,530.617918 341.599678,568.374841 338.185258,616.915507 Z M599.127125,532.482622 L597.399698,532.553278 C569.131307,534.518334 548.983617,575.461433 552.398037,624.002098 C555.811945,672.542764 581.495593,710.299585 609.763984,708.334478 C638.031863,706.369371 658.180065,665.426477 654.765645,616.885811 C651.490954,570.326585 627.727182,533.688382 600.846875,532.509246 L599.127125,532.482622 Z" />
        </g>
    </g>
</svg>
